<?xml version="1.0" standalone="no"?>
<!DOCTYPE svg PUBLIC "-//W3C//DTD SVG 20010904//EN"
 "http://www.w3.org/TR/2001/REC-SVG-20010904/DTD/svg10.dtd">
<svg version="1.0" xmlns="http://www.w3.org/2000/svg"
 width="1042.000000pt" height="1043.000000pt" viewBox="0 0 1042.000000 1043.000000"
 preserveAspectRatio="xMidYMid meet">

<g transform="translate(0.000000,1043.000000) scale(0.100000,-0.100000)"
fill="#000000" stroke="none">
<path d="M4940 10384 c-25 -2 -106 -8 -180 -14 -933 -75 -1879 -435 -2645
-1007 -959 -716 -1644 -1746 -1930 -2906 -264 -1070 -179 -2204 241 -3222 118
-286 314 -652 484 -905 86 -128 225 -311 341 -451 127 -152 444 -471 598 -603
1116 -948 2557 -1377 4016 -1196 792 99 1550 382 2223 832 290 194 519 383
787 652 424 425 731 856 991 1391 427 878 595 1855 488 2829 -145 1320 -798
2540 -1819 3397 -794 666 -1765 1075 -2810 1184 -140 15 -680 28 -785 19z
m-255 -3219 c157 -43 346 -161 447 -276 28 -32 57 -59 64 -59 6 0 32 23 56 52
66 79 179 163 292 218 150 72 211 85 396 85 184 0 245 -13 396 -86 125 -59
230 -142 314 -245 l64 -77 21 29 c11 16 53 64 94 106 117 123 249 201 418 250
68 20 100 23 248 23 159 -1 176 -3 255 -29 126 -42 225 -97 320 -178 169 -147
273 -327 315 -550 13 -68 15 -211 15 -930 0 -826 -1 -850 -20 -888 -32 -62
-73 -85 -152 -85 -72 0 -102 14 -142 69 -21 27 -21 39 -26 899 -5 791 -7 877
-23 931 -108 365 -522 533 -842 341 -119 -72 -205 -181 -253 -320 l-27 -80 -5
-871 -5 -871 -27 -35 c-38 -50 -82 -68 -168 -68 -86 0 -139 24 -173 80 l-22
35 -5 880 c-5 688 -9 889 -19 920 -49 149 -163 284 -292 347 -103 50 -150 61
-259 62 -248 1 -450 -143 -538 -384 l-27 -75 -5 -875 c-6 -986 1 -909 -83
-964 -72 -46 -179 -29 -227 38 -37 51 -38 72 -39 589 l-1 507 -570 0 -570 0 0
-222 c0 -240 -9 -324 -42 -433 l-22 -70 -6 40 c-11 69 -57 133 -119 165 -31
16 -111 16 -140 0 -13 -6 -23 -10 -24 -8 -1 2 1 280 4 618 6 632 8 649 50 780
104 314 374 560 689 626 88 18 333 12 415 -11z m-2385 -96 c39 -24 59 -49 77
-94 8 -22 12 -250 12 -861 1 -796 2 -834 21 -909 76 -297 368 -490 653 -430
105 22 157 46 255 117 98 71 136 80 205 50 56 -25 97 -83 104 -146 8 -68 -24
-124 -105 -186 -170 -127 -358 -191 -565 -191 -412 0 -770 286 -884 706 l-27
100 -4 850 c-2 583 0 861 7 886 33 111 158 164 251 108z m2551 -2911 l39 -11
0 -64 c0 -34 -3 -63 -6 -63 -3 0 -17 9 -31 20 -36 28 -83 34 -126 17 -54 -23
-70 -63 -75 -183 -5 -126 15 -186 72 -209 48 -20 66 -19 120 10 l46 24 0 -63
0 -63 -39 -11 c-138 -42 -275 25 -313 152 -20 66 -17 252 5 306 49 121 176
178 308 138z m1446 -7 c54 -25 89 -79 108 -167 28 -131 11 -279 -41 -357 -31
-47 -91 -76 -157 -77 -139 0 -210 106 -209 312 1 158 44 258 127 294 44 19
123 17 172 -5z m-4127 -241 l0 -250 125 0 125 0 0 -50 0 -50 -185 0 -185 0 0
300 0 300 60 0 60 0 0 -250z m619 218 c5 -18 28 -103 51 -188 23 -85 52 -193
65 -240 12 -47 26 -97 29 -112 l6 -28 -60 0 c-57 0 -60 1 -66 28 -3 15 -11 47
-18 72 l-12 45 -76 3 -77 3 -10 -38 c-5 -21 -14 -54 -18 -73 -9 -35 -9 -35
-72 -38 -55 -3 -63 -1 -57 13 7 19 156 572 156 580 0 3 33 5 74 5 l74 0 11
-32z m619 -20 l3 -48 -130 0 -131 0 0 -65 0 -65 118 0 117 0 -3 -50 -4 -50
-114 0 -114 0 0 -135 0 -135 -60 0 -60 0 0 300 0 300 188 -2 187 -3 3 -47z
m420 27 c61 -36 90 -136 62 -210 -13 -34 -58 -75 -83 -75 -19 0 -19 -1 2 -17
17 -15 141 -250 141 -268 0 -3 -29 -5 -63 -5 l-64 0 -43 91 c-54 115 -82 149
-121 149 l-29 0 0 -120 0 -120 -60 0 -60 0 0 301 0 301 143 -4 c120 -2 147 -6
175 -23z m562 -25 l0 -50 -60 0 -60 0 0 -200 0 -200 60 0 60 0 0 -50 0 -50
-180 0 -180 0 0 50 0 50 60 0 60 0 0 200 0 200 -60 0 -60 0 0 50 0 50 180 0
180 0 0 -50z m899 18 c5 -18 28 -103 51 -188 23 -85 52 -193 65 -240 12 -47
26 -97 29 -112 l6 -28 -59 0 -58 0 -13 48 c-27 106 -18 97 -103 100 l-76 3
-10 -38 c-5 -21 -14 -54 -18 -73 -9 -35 -9 -35 -72 -38 -52 -2 -63 0 -58 11 4
12 98 354 149 550 l10 37 73 0 73 0 11 -32z m383 -95 l35 -126 31 115 c18 63
32 120 32 127 0 7 25 11 75 11 l75 0 0 -300 0 -300 -55 0 -55 0 -1 218 -1 217
-26 -108 -26 -108 -50 3 -49 3 -28 110 -27 110 -1 -222 -1 -223 -55 0 -55 0 0
300 0 300 73 0 74 0 35 -127z m1123 116 c24 -6 55 -24 72 -41 25 -26 28 -36
28 -98 0 -71 -16 -103 -59 -119 -16 -7 -14 -10 17 -29 53 -31 70 -71 65 -155
-3 -63 -7 -72 -35 -98 -45 -40 -90 -49 -240 -49 l-133 0 0 300 0 300 121 0
c66 0 140 -5 164 -11z m595 -39 l0 -50 -60 0 -60 0 0 -200 0 -200 60 0 60 0 0
-50 0 -50 -180 0 -180 0 0 50 0 50 60 0 60 0 0 200 0 200 -60 0 -60 0 0 50 0
50 180 0 180 0 0 -50z m280 -200 l0 -250 125 0 125 0 0 -50 0 -50 -185 0 -185
0 0 300 0 300 60 0 60 0 0 -250z m730 200 l0 -50 -125 0 -125 0 0 -65 0 -65
115 0 115 0 0 -50 0 -50 -115 0 -115 0 0 -85 0 -85 125 0 125 0 0 -50 0 -50
-185 2 c-102 2 -185 6 -185 11 0 4 0 138 0 297 l0 290 185 0 185 0 0 -50z"/>
<path d="M4338 6835 c-174 -36 -322 -154 -398 -318 -49 -105 -60 -166 -60
-334 l0 -153 570 0 570 0 0 158 c0 184 -13 252 -68 356 -44 84 -134 179 -212
223 -122 69 -274 95 -402 68z"/>
<path d="M6165 4048 c-33 -30 -49 -115 -42 -228 6 -101 17 -133 51 -156 35
-22 72 -11 93 29 23 42 26 273 4 325 -23 55 -63 66 -106 30z"/>
<path d="M2679 3925 l-25 -115 54 0 c46 0 53 2 48 18 -2 9 -14 61 -26 115 -12
53 -23 97 -24 97 -1 0 -13 -52 -27 -115z"/>
<path d="M3630 3980 l0 -82 56 4 c69 6 89 24 88 79 -2 54 -21 71 -88 77 l-56
4 0 -82z"/>
<path d="M5187 3963 c-9 -43 -21 -95 -26 -115 l-9 -38 55 0 c47 0 54 2 49 18
-2 9 -14 61 -26 115 -12 53 -23 97 -24 97 -2 0 -10 -35 -19 -77z"/>
<path d="M6630 3995 l0 -65 53 0 c68 0 97 19 97 65 0 46 -29 65 -97 65 l-53 0
0 -65z"/>
<path d="M6630 3744 l0 -87 71 5 c81 6 99 19 101 69 3 75 -27 99 -123 99 l-49
0 0 -86z"/>
</g>
</svg>
